# xmcd
#
# Track frame offsets: 
#        150
#        16148
#        35285
#        52722
#        67884
#        83626
#        101487
#        118016
#        138165
#        162952
#        180659
#        198759
#        215243
#        230393
#        246550
#        262769
#        282438
#        299677
#        320323
#        338102
#
# Disc length: 4768 seconds
#
# Revision: 0
# Processed by: cddbd v1.4PL0 Copyright (c) Steve Scherf et al.
# Submitted via: ExactAudioCopy v0.95a4
#
DISCID=17129e14
DTITLE=Leann Rimes - Twisted Angel
DYEAR=2002
DGENRE=Country
TTITLE0=Life Goes On
TTITLE1=Wound Up
TTITLE2=The Safest Place
TTITLE3=Trouble With Goodbye
TTITLE4=Damm
TTITLE5=Suddenly
TTITLE6=Tic Toc
TTITLE7=Sign of Life
TTITLE8=Review My Kisses
TTITLE9=No Way Out
TTITLE10=Love Is an Army
TTITLE11=You Made Me Find Myself
TTITLE12=Twisted Angel
TTITLE13=Can't Fight the Moonlight (Latino Mix)
TTITLE14=Can't Fight the Moonlight
TTITLE15=I Need You (Dave Aude Radio Edit)
TTITLE16=I Need You
TTITLE17=Soon (Graham Stack Radio Edit)
TTITLE18=Soon
TTITLE19=Written in the Stars (Duet with Elton John)
EXTD=
EXTT0=
EXTT1=
EXTT2=
EXTT3=
EXTT4=
EXTT5=
EXTT6=
EXTT7=
EXTT8=
EXTT9=
EXTT10=
EXTT11=
EXTT12=
EXTT13=
EXTT14=
EXTT15=
EXTT16=
EXTT17=
EXTT18=
EXTT19=
PLAYORDER=
